<svg width="141" height="155" viewBox="0 0 141 155" fill="none" xmlns="http://www.w3.org/2000/svg">
<path fill-rule="evenodd" clip-rule="evenodd" d="M131.751 64.3522C127.691 65.6679 123.876 67.3465 123.274 68.0815C122.671 68.8174 125.273 68.1672 129.057 66.6364C132.839 65.1057 135.731 64.4146 135.483 65.1006C135.236 65.7865 133.263 67.0613 131.1 67.9333C126.45 69.806 125.617 70.5823 127.869 70.9425C128.983 71.1199 128.758 71.6874 127.183 72.6747C125.895 73.4819 125.083 74.3386 125.377 74.5795C125.97 75.0648 131.785 71.1244 137.348 66.4683C142.365 62.2702 140.432 61.5399 131.751 64.3522ZM116.587 60.155C114.949 60.9147 110.875 63.6998 107.532 66.3439C102.265 70.5074 101.199 71.9085 99.5678 76.8064C97.7739 82.192 97.4632 82.5364 93.0728 84.018C87.0342 86.0561 85.7121 83.6204 89.3751 77.2063C90.9626 74.4252 91.4996 72.7376 90.5669 73.458C89.635 74.1774 88.0264 76.7613 86.992 79.1991C84.9935 83.9142 83.0874 85.1942 83.431 81.5906C83.5445 80.3955 83.3074 79.8081 82.9034 80.283C82.4997 80.7597 82.268 82.3963 82.388 83.9211C82.584 86.387 81.9731 86.8484 76.855 88.1005C72.345 89.204 71.3774 89.0839 72.378 87.5418C73.0812 86.46 76.0863 82.0133 79.0582 77.6589C82.03 73.3044 84.0898 69.4388 83.6357 69.067C80.7299 66.6882 68.5062 79.3312 67.2637 85.9994C66.5521 89.8256 66.2095 90.1471 61.7813 91.1487L57.059 92.2185L61.703 84.7112C66.4431 77.0517 66.7011 74.6772 62.4753 77.6167C58.8375 80.1475 56.4242 83.4689 54.9193 88.0165C53.7046 91.6855 53.0249 92.2785 49.0062 93.176C42.7935 94.5621 42.0647 95.9414 48.1566 94.7812C52.686 93.9181 53.448 94.2028 58.1739 98.5142C62.5745 102.528 62.8827 102.667 60.3828 99.5075L57.4766 95.8354L60.706 98.0811L63.9353 100.327L61.4965 97.1154C59.2724 94.1865 59.4653 94.2233 63.6895 97.5318C66.9165 100.059 67.6491 101.058 66.1059 100.828C64.2085 100.544 64.067 100.791 65.1171 102.552C66.5256 104.915 69.9375 106.408 70.9895 105.123C71.9291 103.975 69.0329 100.15 64.2267 96.1885C59.1786 92.0271 61.5934 90.2226 67.0981 94.0429C69.2746 95.5524 71.3601 96.4159 71.7316 95.9621C72.1038 95.5074 73.1275 95.4188 74.0058 95.7636C74.885 96.1092 74.4234 95.7012 72.9813 94.8566C68.3894 92.1705 69.1275 90.5838 75.5302 89.3804C79.9479 88.5484 82.5195 88.845 84.4468 90.4052C85.9365 91.6105 88.2068 92.7064 89.4923 92.8385C91.2946 93.0243 91.1402 92.7403 88.818 91.5987L85.8063 90.1187L89.3688 90.1645C91.3294 90.19 94.2417 90.3468 95.8408 90.5127C97.4416 90.6785 96.2959 90.2786 93.2953 89.6229C90.2947 88.9673 87.6734 88.2941 87.4691 88.1268C86.8319 87.6052 95.2036 84.2482 98.2383 83.8078C99.8286 83.578 102.553 84.5253 104.291 85.9145L107.452 88.44L105.329 84.5127C104.161 82.353 103.63 79.6176 104.149 78.4345C104.956 76.5951 104.703 76.5282 102.401 77.9743C99.8955 79.5488 99.76 79.4936 100.457 77.1792C101.72 72.9874 105.442 69.0577 111.002 66.0483L116.309 63.1761L111.426 70.3235L106.544 77.4717L113.504 69.3325C120.694 60.9283 121.759 57.755 116.587 60.155ZM92.7039 48.2298C84.5034 49.1572 74.2855 53.4342 68.3744 58.4138C63.3114 62.6772 62.3676 63.0811 62.6254 60.8657C64.4603 45.1582 65.1768 30.2037 64.0928 30.2795C63.3509 30.3314 63.507 29.9447 64.4399 29.4221C66.1858 28.4408 67.2162 24.0684 65.6752 24.1762C64.6163 24.2502 57.8561 37.4892 56.25 42.637C54.1979 49.2108 54.8445 61.2722 57.4598 65.2379L59.9272 68.9757L52.3356 78.9754L44.7447 88.9741L53.8245 77.9159C62.0285 67.9256 63.3716 66.7451 67.739 65.6857C70.3975 65.0424 76.996 62.1554 82.4007 59.2719C98.338 50.7675 101.651 47.2178 92.7039 48.2298ZM35.0513 3.4206C34.2438 5.16845 32.711 7.67433 31.644 8.99006C29.9143 11.1214 29.9576 11.246 32.0403 10.1361C34.0637 9.05722 34.1532 9.50304 32.7154 13.4528C31.8014 15.9621 31.312 18.7059 31.6256 19.5486C31.941 20.3911 32.2651 20.4511 32.3469 19.6806C32.6237 17.0747 36.4613 4.97297 36.8983 5.33067C37.137 5.52608 37.0479 8.499 36.7018 11.9365C36.3557 15.3741 36.4143 17.2689 36.8327 16.145C38.2168 12.43 38.7702 2.08663 37.6343 1.15678C36.9253 0.576348 35.9812 1.40356 35.0513 3.4206ZM117.677 73.0526C115.609 75.4566 112.102 77.8857 109.486 78.7246C103.143 80.7615 103.254 81.0342 110.703 81.6826C117.024 82.2337 121.561 84.1275 118.707 85.0235C117.896 85.2779 118.21 85.7737 119.463 86.2154C121.059 86.7787 121.439 86.5229 120.953 85.2187C120.562 84.1747 121.359 84.4336 122.92 85.8568L125.542 88.2483L121.629 88.2289C119.477 88.2185 115.545 88.0917 112.893 87.9473C110.241 87.8029 109.155 87.9686 110.484 88.3143C113.648 89.1392 130.779 89.6374 131.468 88.9232C132.27 88.0943 116.196 80.7989 113.916 80.9582C110.021 81.2306 110.271 79.6377 114.282 78.632C121.842 76.7365 123.992 75.568 122.366 74.2374C121.562 73.5791 120.477 73.468 119.957 73.9906C119.436 74.5132 119.524 73.5697 120.152 71.8946C121.102 69.3603 120.686 69.5548 117.677 73.0526ZM91.0201 51.9415C91.7715 52.0615 92.2702 52.3026 92.1274 52.477C91.2042 53.6047 73.1363 62.7803 70.1861 63.621C65.5267 64.9462 63.9773 63.692 67.7326 61.6347C69.3295 60.7592 70.8909 59.213 71.2042 58.1989C71.5174 57.1848 76.0267 54.6749 81.2245 52.6219C86.423 50.5679 90.4465 49.5263 90.1651 50.3054C89.884 51.0863 90.2686 51.8215 91.0201 51.9415ZM100.419 58.2952C97.8505 58.4757 94.7002 63.8528 95.1468 67.2961C95.5991 70.7838 95.6117 70.7829 97.4725 67.2099C100.968 60.501 101.727 58.2038 100.419 58.2952ZM80.5342 54.668C75.9696 56.612 72.0017 58.5349 71.7153 58.9405C71.4289 59.3461 75.2004 58.0489 80.0979 56.0574C84.9945 54.0668 88.9625 52.1437 88.9169 51.7848C88.8694 51.4259 85.0978 52.7232 80.5342 54.668ZM62.9099 45.3331C62.2144 52.4267 61.3326 59.7644 60.9493 61.6399L60.2515 65.049L59.6173 60.5494C59.2683 58.0745 59.4516 52.176 60.0229 47.442C60.5959 42.7079 60.5884 39.4155 60.0078 40.1248C58.7607 41.6481 57.4696 54.5227 58.2256 57.8912C58.5154 59.1777 58.3886 60.6739 57.9461 61.2144C56.6873 62.7521 55.7474 55.6586 56.3515 49.1843C56.6517 45.9639 58.0303 41.7189 59.416 39.7518C60.801 37.7857 62.221 35.1556 62.5712 33.9107C63.9826 28.8933 64.1075 33.1049 62.9099 45.3331ZM44.0394 24.7658C38.8048 25.4751 37.6574 26.1917 33.8299 31.1353L29.5185 36.705L34.6056 31.7561C37.6761 28.7688 40.9441 26.7186 42.8506 26.5853C45.8663 26.3745 45.8617 26.4934 42.7401 29.2398C40.3746 31.3203 40.15 31.7908 41.9266 30.9413L44.3815 29.7667L43.3456 32.103C42.7764 33.3884 44.2056 32.2307 46.5242 29.5306C48.8427 26.8305 50.5586 24.4746 50.3381 24.2941C50.1176 24.1136 47.283 24.3261 44.0394 24.7658ZM88.3127 69.7115C85.9166 72.5662 83.8758 75.7628 83.7771 76.814C83.6768 77.8815 85.4113 76.1362 87.7026 72.8629C93.2996 64.8684 93.5756 63.4417 88.3127 69.7115ZM112.592 84.1029C109.541 83.9837 109.539 84.0108 112.542 84.8021C114.262 85.2552 115.832 85.4258 116.031 85.1827C116.628 84.4535 115.931 84.2344 112.592 84.1029ZM32.3913 23.8421C29.8103 25.6061 29.7976 25.599 28.9828 21.8813C28.5323 19.8296 28.3703 20.8115 28.6231 24.0643C29.1271 30.5573 27.8082 39.2853 26.4873 38.2039C26.0281 37.828 25.5445 36.6917 25.4132 35.6799C25.249 34.4134 24.8013 34.2937 23.9772 35.3004C23.3193 36.104 23.3877 37.2586 24.1301 37.8663C26.3764 39.7053 24.2063 40.852 21.4022 39.3063C19.9612 38.5119 20.5446 39.1137 22.6984 40.6428C25.7772 42.8289 26.7226 44.4309 27.1226 48.1353C27.7731 54.1688 26.6386 55.4659 22.7626 53.1207C20.2639 51.6085 20.3755 51.8765 23.3323 54.4882C28.4794 59.0362 26.4172 60.4368 21.0465 56.0401C15.9176 51.8413 11.6788 45.7855 11.1975 41.97C10.8971 39.5842 10.997 39.5035 12.1028 41.2335C12.7858 42.3038 14.8872 44.844 16.7721 46.879L20.1989 50.5777L17.2929 46.2037C15.6937 43.7991 14.9929 41.7909 15.737 41.7425C16.4801 41.6932 15.403 40.2749 13.3427 38.5882C9.97667 35.8326 9.55273 35.7913 9.14392 38.1808C8.89402 39.6416 10.0011 43.5078 11.605 46.7712C13.9986 51.6412 15.7407 53.5577 21.3344 57.4715C27.7702 61.9743 28.1779 62.5183 28.6918 67.268L29.2345 72.2962L21.5775 66.3032L13.9214 60.3093L20.0203 66.2719C24.1801 70.3381 25.1709 71.7526 23.1358 70.7202C20.6596 69.4653 20.7207 69.63 23.4896 71.6913C27.0977 74.376 26.1388 75.5144 21.5584 73.9842C19.5691 73.3189 19.1878 73.4525 20.2935 74.4293C21.1651 75.197 23.8666 75.9231 26.2964 76.0399C30.713 76.2515 30.715 76.2531 31.1764 79.8103C31.6377 83.3676 31.6359 83.3677 26.8495 80.5209C24.2155 78.9552 22.1126 78.0759 22.1764 78.5675C22.2391 79.0583 24.4978 80.6017 27.1955 81.9966C31.7549 84.3552 33.0108 86.6984 29.1225 85.5898C28.181 85.3222 28.6297 85.7006 30.1214 86.433C31.6132 87.1654 32.6414 87.9977 32.4073 88.2836C31.3943 89.521 24.1174 87.56 19.0002 84.6716L13.44 81.5321L18.5279 85.1558C21.7669 87.4619 25.8314 89.0651 29.7087 89.5661C38.5048 90.7009 40.9647 94.2415 36.7728 99.7354L33.6748 103.794L38.2838 99.6065C43.1037 95.2252 45.2713 91.7934 43.917 90.6847C43.478 90.3253 42.6142 91.1721 41.9987 92.5677C41.0949 94.6189 40.6434 94.7062 39.6397 93.0248C38.9579 91.8807 38.097 90.6934 37.7264 90.3868C37.3567 90.081 40.0103 86.13 43.622 81.6067C51.1741 72.1526 52.0034 68.0423 45.5028 72.2831C43.1972 73.787 40.0934 76.8871 38.6051 79.1714C36.2587 82.7722 36.4939 82.6479 40.3765 78.2333C45.9365 71.9122 46.355 75.2926 40.8517 82.0646C37.4102 86.2973 37.1081 86.4002 34.8264 84.1008C33.5056 82.7696 32.2123 80.0534 31.9552 78.0645C31.5148 74.6757 31.7018 74.3957 34.9396 73.5833C36.8396 73.1072 39.0639 71.8139 39.8853 70.7094C40.8219 69.4478 39.9579 69.6097 37.5565 71.1482C32.1476 74.6125 34.2456 70.7766 41.7046 63.5677C45.9945 59.4213 47.3923 58.5722 46.8467 60.4438L46.098 63.0153L47.6295 61.0846C48.4718 60.0228 49.7139 57.8411 50.3891 56.2364C51.602 53.3557 51.5511 53.3394 46.3315 54.9797C41.812 56.4002 40.3192 57.6459 36.0179 63.5933C33.2523 67.4192 30.7124 70.3218 30.3735 70.0444C30.0347 69.767 29.5708 67.6263 29.3416 65.2877C29.0281 62.0967 29.6224 60.4959 31.7204 58.8762C40.0328 52.4615 39.6932 52.7773 36.9989 53.974L34.4772 55.094L35.8468 53.0309C36.8218 51.5634 36.3182 51.6112 34.1036 53.1959C31.6715 54.9369 32.0842 54.0345 35.989 49.0729C39.2481 44.9329 42.0178 42.4906 43.9484 42.0555C47.4662 41.2622 47.2513 42.7422 42.9011 49.2529C40.8766 52.2829 41.4272 51.893 44.9878 47.7769C51.2864 40.4937 51.6575 37.688 46.115 39.2645C43.2467 40.0815 40.0705 42.5891 35.5094 47.6406L28.9998 54.8514L28.2307 49.7717C27.8068 46.9776 28.0646 44.0854 28.8037 43.3436C29.5421 42.6026 30.9277 40.9347 31.8816 39.6395C33.3005 37.7123 33.1839 37.2729 31.2445 37.2297C28.2471 37.1625 28.7477 32.6716 32.4534 26.3704C34.6754 22.5914 34.6684 22.2863 32.3913 23.8421ZM93.0818 74.4118C91.8144 76.0013 91.6085 76.7149 92.6248 75.9977C93.641 75.2805 94.6774 73.9794 94.9286 73.1072C95.1798 72.235 94.3492 72.8223 93.0818 74.4118ZM15.0767 14.5332C14.6475 15.0575 14.7373 15.8475 15.2764 16.2888C15.8145 16.7293 15.5512 17.4739 14.6898 17.9421C13.8284 18.4104 13.4638 20.0463 13.8768 21.5785C14.5207 23.9574 14.6063 24.0179 14.4603 21.9925C14.1357 17.4758 15.4995 18.1767 17.2071 23.4038C18.1501 26.2901 19.8212 28.9701 20.9193 29.358C22.4378 29.8926 22.7602 29.6391 22.2612 28.3007C21.8987 27.3321 20.7146 26.2259 19.6308 25.8433C18.4286 25.4196 18.2466 24.9632 19.1638 24.6744C20.0029 24.4108 19.8014 22.0074 18.7116 19.2571C16.4832 13.6324 16.1592 13.211 15.0767 14.5332ZM35.927 34.7867C34.854 36.0975 34.6442 36.8221 35.4613 36.3956C36.2786 35.9709 37.1565 34.8984 37.4123 34.0124C37.6683 33.1281 37.0001 33.4759 35.927 34.7867ZM89.7635 80.4522C88.6905 81.763 88.4807 82.4877 89.2978 82.0612C90.1151 81.6364 90.9931 80.564 91.2488 79.678C91.5048 78.7937 90.8366 79.1415 89.7635 80.4522ZM100.563 88.6502C97.7262 87.603 94.5545 86.8343 93.5145 86.943C92.3114 87.0693 92.8085 87.4237 94.8804 87.9178C96.6725 88.3452 98.5324 89.3233 99.0136 90.0913C99.4947 90.8594 101.687 91.9311 103.885 92.473C110.142 94.0145 108.788 95.3225 101.861 94.4281C98.4218 93.9837 95.4601 93.8026 95.2782 94.0247C94.7835 94.6291 102.384 95.8376 107.983 96.0446L112.902 96.2265L109.312 93.3905C107.337 91.8309 103.4 89.6985 100.563 88.6502ZM41.9831 46.1131C40.4808 47.9482 40.075 48.869 41.0796 48.1598C42.0852 47.4514 43.3151 45.949 43.811 44.8233C44.3079 43.6984 43.4854 44.2781 41.9831 46.1131ZM77.654 75.3152C76.9877 75.5245 76.6854 76.3436 76.9808 77.1363C77.5789 78.7374 73.3522 84.3956 70.329 86.0395C66.8819 87.9144 68.3831 83.6106 73.2716 77.6042C76.1375 74.0849 77.9865 72.5814 78.3273 73.4941C78.6226 74.2868 78.3203 75.106 77.654 75.3152ZM13.4022 25.7261C13.2228 27.4166 15.3032 32.8279 15.8682 32.1377C16.0485 31.9175 15.6058 30.0234 14.8846 27.9268C14.1626 25.8311 13.4953 24.8406 13.4022 25.7261ZM20.6037 31.9926C20.7567 33.2069 21.3333 34.1678 21.8842 34.1284C22.4361 34.0898 22.311 33.0974 21.6072 31.9225C20.5889 30.2259 20.3836 30.2394 20.6037 31.9926ZM73.6516 79.3355C72.791 80.4859 72.8457 80.908 73.7904 80.4124C74.6461 79.9634 75.2832 79.1109 75.2065 78.5195C75.1298 77.9281 74.4307 78.2952 73.6516 79.3355ZM39.2119 63.7465L35.1436 66.7846L38.2942 62.7277C40.028 60.4963 42.4264 58.1609 43.6249 57.5388C45.6653 56.4785 45.7242 56.5428 44.5427 58.5576C43.8481 59.7404 41.4497 62.0757 39.2119 63.7465ZM44.0967 66.1533C42.8292 67.7428 42.6234 68.4563 43.6396 67.7391C44.6559 67.0219 45.6923 65.7209 45.9435 64.8487C46.1947 63.9764 45.3641 64.5638 44.0967 66.1533ZM20.3047 46.9673C20.8084 47.8398 21.7094 48.52 22.3043 48.4785C22.8992 48.4369 22.4866 47.7234 21.387 46.8916C20.1712 45.9728 19.7465 46.0025 20.3047 46.9673ZM79.1268 95.1827C80.3248 96.5566 81.4103 98.3816 81.5388 99.2398C81.6709 100.119 80.8744 99.742 79.7134 98.3744C77.9026 96.2407 77.8152 96.2504 78.9809 98.4561C80.188 100.737 87.3376 103.724 88.4224 102.399C88.6261 102.15 86.1282 99.8635 82.8705 97.316C79.6128 94.7685 77.9289 93.8087 79.1268 95.1827ZM111.186 126.135C104.038 127.105 98.0315 129.872 94.9575 133.612C93.7526 135.078 90.5733 136.584 87.8357 136.988C84.5606 137.47 83.5941 137.275 84.9747 136.411C86.1221 135.695 87.4833 133.943 87.9992 132.519C88.9041 130.023 88.8416 129.994 86.2548 131.713C84.1559 133.109 84.3303 132.558 87.0541 129.183C89.0964 126.654 90.2629 125.792 89.8747 127.1C89.3212 128.966 89.8063 129.047 92.8471 127.594C94.846 126.64 97.3048 124.54 98.3115 122.927C100.091 120.078 99.9774 120.06 94.2742 122.293C89.1499 124.3 87.788 125.501 83.52 131.775C78.9044 138.561 78.3619 138.986 73.7642 139.406L68.8949 139.851L69.3915 136.646C69.8072 133.961 69.6524 133.715 68.4397 135.135C67.644 136.067 66.7544 136.193 66.4634 135.413C65.794 133.618 65.082 134.472 64.5221 137.739C64.1965 139.641 63.0932 140.481 60.1883 141.037C58.0447 141.448 56.3421 142.184 56.4054 142.672C56.6364 144.454 53.0908 140.271 51.8385 137.286C50.3998 133.853 49.8387 134.044 49.127 138.204C48.7216 140.571 47.79 141.125 43.5695 141.512C37.1223 142.101 36.6444 141.636 39.9634 137.999C41.639 136.163 41.781 135.766 40.3391 136.958C37.5936 139.224 33.4554 139.758 33.1164 137.89C32.9847 137.168 32.5211 137.65 32.0855 138.962C31.5539 140.564 29.9608 141.483 27.2365 141.759C23.1463 142.174 18.8199 139.96 20.266 138.194C20.6952 137.669 20.6024 136.877 20.0603 136.433C19.4403 135.925 18.7244 136.742 18.1345 138.635C17.3456 141.16 16.6633 141.49 13.8778 140.688C10.9874 139.856 10.7428 139.476 11.9772 137.743C12.7573 136.648 13.6321 135.231 13.9228 134.593C14.2135 133.955 16.1496 131.241 18.2259 128.563C20.3023 125.884 21.6607 123.414 21.243 123.072C20.8252 122.73 18.0781 125.854 15.1371 130.014C12.196 134.174 9.4337 137.286 8.99879 136.93C6.39842 134.802 3.63246 127.555 4.84456 126.048C5.64786 125.048 5.58005 124.477 4.68531 124.695C2.40496 125.25 0.205925 122.932 1.07785 120.893C1.74997 119.321 1.82383 119.381 1.73732 121.433C1.55648 125.713 2.67424 122.579 3.56147 116.322C4.69787 108.306 5.9241 106.851 6.22395 113.165C6.35329 115.898 6.68885 116.889 6.96876 115.367C7.24968 113.845 7.39034 110.378 7.28224 107.662L7.0868 102.726L3.94841 106.549C2.22224 108.652 0.418036 112.675 -0.0629311 115.491C-0.699032 119.223 -1.37243 120.465 -2.5477 120.074C-3.45468 119.773 -3.41214 120.206 -2.45125 121.063C-0.184655 123.085 -1.78178 124.921 -4.13335 122.995C-5.13971 122.172 -7.36185 121.405 -9.07184 121.29C-12.6921 121.049 -11.8618 122.209 -7.7621 123.122C-6.2123 123.465 -4.21148 124.832 -3.31438 126.159C-1.82393 128.366 -2.1781 128.487 -7.50316 127.586C-10.8186 127.026 -14.8276 125.335 -16.8218 123.656C-19.9314 121.037 -19.431 121.082 -12.33 124.05C-7.93494 125.887 -4.38687 127.022 -4.44556 126.569C-4.50401 126.118 -6.15471 125.178 -8.11286 124.481C-10.072 123.783 -11.9129 122.575 -12.2049 121.795C-12.791 120.224 -22.1583 117.794 -23.115 118.963C-23.4467 119.368 -21.6479 121.394 -19.1163 123.467C-14.2504 127.45 -8.09174 129.517 -1.57529 129.35C2.13612 129.255 2.54936 129.535 5.49298 134.129L8.61914 139.008L-0.39476 150.602C-5.46945 157.131 -10.1612 162.25 -11.1324 162.318C-13.2073 162.463 -14.5812 157.662 -15.1426 148.3C-15.5238 141.967 -14.6817 142.234 -13.0701 148.959C-12.3552 151.94 -12.3126 151.956 -12.3205 149.225C-12.3288 146.582 -14.8863 139.667 -16.278 138.528C-16.5946 138.269 -17.3055 140.406 -17.858 143.277C-19.0077 149.26 -16.947 163.455 -14.6561 165.33C-13.5183 166.262 -14.0379 167.811 -16.6467 171.263L-20.1776 175.936L-16.2865 171.956C-13.2343 168.835 -11.1814 167.941 -6.76499 167.81C-3.66788 167.718 -2.22615 167.536 -3.56027 167.405C-9.08924 166.862 -9.24334 166.595 -5.42765 164.181C-3.38588 162.888 -1.47708 162.151 -1.18665 162.543C-0.896216 162.936 1.47807 163.036 4.09 162.765C6.70192 162.494 8.29579 161.818 7.63347 161.263C6.87159 160.624 7.23231 160.373 8.61523 160.58C11.2869 160.979 12.2217 162.98 10.1442 163.851C9.30818 164.201 10.0239 164.241 11.7325 163.941C17.4289 162.938 17.2131 161.462 11.162 160.044C6.54223 158.963 0.748733 159.552 -4.57131 161.645C-8.37323 163.14 -8.19598 162.806 0.427691 152.204L9.36902 141.214L13.8336 142.089C17.276 142.764 18.5717 143.581 19.4927 145.657C20.1504 147.138 21.1559 148.317 21.7283 148.277C22.3016 148.236 22.2384 147.769 21.59 147.238C20.9407 146.707 20.7609 145.843 21.1901 145.319C21.6193 144.794 23.3632 145.506 25.0644 146.898C26.8698 148.376 27.573 149.616 26.7529 149.873C25.133 150.382 26.9576 151.952 30.6523 153.227C34.4862 154.551 32.7184 151.042 27.3275 146.629L22.8945 142.999L27.3809 143.186C30.8195 143.329 32.8863 144.32 36.2432 147.438C40.1253 151.043 40.2826 151.098 37.6389 147.924C34.9698 144.722 34.9479 144.4 37.4298 144.862C38.9556 145.146 41.0259 146.331 42.0311 147.495C43.7929 149.536 43.8109 149.522 42.5344 147.103C41.8066 145.722 40.717 144.501 40.1135 144.386C37.6678 143.923 40.3687 142.846 44.2877 142.721C46.5907 142.648 50.3575 143.643 52.6593 144.933C54.9601 146.223 56.91 146.653 56.9915 145.887C57.0757 145.087 58.9628 146.038 61.442 148.131C64.4756 150.695 64.9943 151.508 63.198 150.887C59.4501 149.593 61.1035 152.694 65.4175 155.049C67.4109 156.137 69.3035 156.706 69.6258 156.312C70.3945 155.373 65.909 150.085 60.7892 145.893C56.7769 142.609 56.7657 142.55 60.1047 142.149C62.4708 141.865 64.9332 142.854 68.2466 145.42C72.9632 149.074 72.975 149.074 70.0316 145.499C67.659 142.617 67.5941 142.284 69.71 143.828C71.6295 145.231 72.1602 145.224 71.6482 143.807C71.0529 142.159 71.2239 141.95 72.7455 142.466C74.2169 142.966 74.2937 142.847 73.1684 141.824C72.1896 140.933 73.0444 140.442 76.1156 140.131C79.253 139.812 81.601 140.588 84.6561 142.954C88.6737 146.063 88.7563 146.065 86.421 143.018L83.9713 139.82L87.9443 141.841C90.5033 143.141 91.6834 143.235 91.2608 142.102C90.8996 141.136 89.7453 140.043 88.6945 139.672C87.1333 139.121 87.2876 138.805 89.5398 137.936C91.0542 137.351 93.4027 137.336 94.7579 137.901C97.5631 139.071 106.625 137.946 107.998 136.256C108.5 135.639 106.868 135.79 104.37 136.592C96.5517 139.102 97.652 136.732 105.804 133.504C110.658 131.581 113.514 131.081 113.413 132.17C113.323 133.127 114.574 132.309 116.193 130.35C117.811 128.391 118.727 126.454 118.229 126.046C117.73 125.637 114.56 125.678 111.186 126.135ZM72.5815 91.8432C71.7858 92.093 72.0603 92.5852 73.2265 92.997C75.4973 93.7972 76.3775 93.3761 74.9231 92.1855C74.3991 91.7566 73.3459 91.6029 72.5815 91.8432ZM57.7123 85.6283C56.696 86.3456 56.9018 85.632 58.1693 84.0425C59.4367 82.453 60.2673 81.8656 60.0161 82.7379C59.7648 83.6101 58.7285 84.9111 57.7123 85.6283ZM105.661 131.724C96.02 135.531 94.067 135.404 99.3846 131.312C102.088 129.231 113.071 126.599 114.425 127.708C114.676 127.914 110.732 129.721 105.661 131.724ZM74.2703 98.0197C72.4938 97.4681 72.0791 97.6239 73.0513 98.4771C73.8616 99.1897 75.5485 99.9148 76.7989 100.09C79.5694 100.478 77.9724 99.1701 74.2703 98.0197ZM-22.2316 29.1539C-25.9667 33.7163 -26.7861 42.8515 -24.6875 56.5442C-23.5619 63.8853 -23.2372 69.0167 -23.9655 67.9461C-26.7043 63.9208 -40.9264 49.6045 -42.1046 49.686C-44.2584 49.8366 -41.4366 60.3925 -37.9977 65.0483C-36.1731 67.518 -34.3276 69.5144 -33.8968 69.4834C-33.4657 69.4542 -34.7259 67.3144 -36.6973 64.7309C-38.6686 62.1474 -40.3254 58.8041 -40.38 57.3025C-40.468 54.8471 -40.279 54.8474 -38.5113 57.3103C-36.9343 59.5088 -36.6682 59.5882 -37.1669 57.7151C-37.6453 55.916 -36.406 56.7236 -31.7713 61.2311C-25.6613 67.1741 -23.6262 71.0642 -26.2034 71.8744C-27.1632 72.1761 -26.7785 72.4944 -25.0199 72.8513C-22.9697 73.2688 -21.9011 74.9969 -20.0138 80.9475L-17.615 88.5141L-19.1415 80.5072C-20.32 74.3201 -20.1623 72.1836 -18.4432 71.1072C-16.965 70.1806 -16.775 69.6245 -17.8745 69.4489C-18.975 69.2724 -18.4539 67.7692 -16.3168 64.9524C-13.7982 61.6344 -13.7038 61.2611 -15.8789 63.2268C-17.4042 64.6051 -19.395 65.7967 -20.3036 65.8728C-22.6903 66.0748 -23.7204 57.7977 -21.6274 55.241C-19.6849 52.8683 -18.2954 37.7976 -19.3928 31.0162L-20.1128 26.5657L-22.2316 29.1539ZM5.89842 55.921C3.90428 54.9604 3.80054 55.3388 5.05478 59.015C5.84089 61.3191 7.18703 63.7379 8.04565 64.3914C8.90426 65.045 8.85178 64.1805 7.92853 62.471C6.54503 59.9102 6.61912 59.5473 8.3484 60.4105C9.50166 60.9868 10.7724 61.0606 11.1696 60.5754C11.9196 59.6593 9.82754 57.8113 5.89842 55.921ZM-20.6357 45.6623C-20.9804 49.55 -21.4627 52.9764 -21.7093 53.2776C-22.2899 53.9869 -24.2087 51.8859 -25.0382 49.6306C-26.1008 46.7418 -24.1513 35.1945 -22.5121 34.68C-20.3944 34.0142 -19.874 37.0577 -20.6357 45.6623ZM-22.6187 35.8171C-22.9909 36.2718 -23.3169 38.0175 -23.3443 39.6955C-23.391 42.6394 -23.3503 42.6536 -22.2006 40.1143C-21.0147 37.4916 -21.3302 34.2432 -22.6187 35.8171ZM-9.91097 49.3998C-11.8879 50.4053 -14.684 53.0408 -16.1261 55.2563L-18.7487 59.2852L-15.2371 55.3424C-12.536 52.3091 -11.1181 51.6214 -9.09766 52.3599C-6.80188 53.1997 -6.45996 52.9574 -6.39418 50.4463C-6.32399 47.7461 -6.53739 47.6829 -9.91097 49.3998ZM75.7496 123.061C72.6984 124.914 69.4178 127.78 68.4575 129.43C66.887 132.126 67.0097 132.111 69.6633 129.276C71.289 127.542 73.711 125.584 75.0479 124.927C77.0637 123.936 77.0417 124.324 74.918 127.209C72.5477 130.43 72.5618 130.56 75.1197 128.966C79.0084 126.544 83.3338 121.361 82.2242 120.453C81.7135 120.035 78.799 121.207 75.7496 123.061ZM65.3453 117.186C58.3658 120.997 52.8471 126.368 51.6864 130.48C50.9336 133.146 51.2941 132.879 53.7395 128.961C55.4049 126.293 58.8319 122.813 61.553 121.028L66.4002 117.848L63.6245 121.944C62.0977 124.197 60.9372 126.778 61.0461 127.681C61.2094 129.037 70.8218 116.196 70.8011 114.649C70.7978 114.407 68.3424 115.549 65.3453 117.186ZM11.2329 68.2362C12.2993 69.4881 14.3464 71.164 15.7843 71.9622C17.223 72.7594 16.3506 71.7347 13.8473 69.6854C11.344 67.6361 10.1673 66.9833 11.2329 68.2362ZM13.4247 74.4503C9.16236 72.8556 9.02695 72.9055 10.2363 75.6295C11.7934 79.138 12.7127 79.967 12.9171 78.0439C13.0112 77.1592 14.8198 77.9647 17.4853 80.08C19.9128 82.0052 23.1073 83.9613 24.5843 84.4269C26.3213 84.9732 25.1833 83.8107 21.3659 81.1361C17.1328 78.1706 16.2429 77.2128 18.2239 77.7519C22.2668 78.8533 18.7747 76.4498 13.4247 74.4503ZM-24.2175 45.9621C-24.473 47.4566 -24.4209 49.378 -24.1011 50.2337C-23.7821 51.0904 -23.3814 50.0252 -23.2111 47.8672C-22.8518 43.2972 -23.5383 41.998 -24.2175 45.9621ZM96.8532 143.405C97.4485 145.053 97.2666 145.275 95.6896 144.827C94.6618 144.534 95.3705 145.189 97.2626 146.283C100.519 148.162 100.534 148.261 97.5579 148.107C93.262 147.885 94.9445 149.022 99.8885 149.683L103.897 150.218L101.98 147.572C99.019 143.487 95.9955 141.03 96.8532 143.405ZM-12.7144 57.0605C-13.7875 58.3713 -13.9972 59.0959 -13.1802 58.6694C-12.3628 58.2447 -11.4849 57.1723 -11.2291 56.2862C-10.9732 55.4019 -11.6414 55.7498 -12.7144 57.0605ZM-11.241 61.4511C-12.314 62.7619 -12.5238 63.4865 -11.7067 63.06C-10.8894 62.6353 -10.0114 61.5628 -9.75568 60.6768C-9.4997 59.7925 -10.1679 60.1404 -11.241 61.4511ZM41.8359 109.617C37.1496 109.828 34.3168 110.647 33.9298 111.902C33.5965 112.977 32.8846 113.496 32.3465 113.056C31.8074 112.614 30.6796 112.946 29.8419 113.792C29.0031 114.637 29.7608 112.929 31.5256 109.995L34.7338 104.661L30.1337 109.956C23.5869 117.493 20.7405 116.172 20.969 105.708C21.0306 102.948 20.4501 100.702 19.6819 100.718C18.912 100.734 19.1096 100.46 20.1192 100.11C21.4911 99.6329 22.2603 101.465 23.1749 107.388L24.3949 115.303L24.4054 108.943C24.4187 100.722 23.2356 93.6495 21.862 93.7446C17.9694 94.0177 16.4845 112.808 20.1206 115.784C21.1482 116.626 21.8371 118.444 21.6537 119.826C21.4082 121.669 21.6248 121.98 22.4706 120.994C23.1025 120.255 25.467 119.464 27.7219 119.235C31.4866 118.854 31.6106 118.744 29.2366 117.907C26.6854 117.008 26.7059 116.978 30.7845 115.818C33.0593 115.171 36.9863 113.944 39.512 113.091C42.0376 112.239 44.2851 112.023 44.5053 112.613C44.7245 113.201 46.2843 113.044 47.9684 112.262C52.4222 110.195 50.2083 109.241 41.8359 109.617ZM73.4148 133.275C72.5542 134.426 72.609 134.848 73.5536 134.352C74.4094 133.903 75.0465 133.051 74.9697 132.459C74.8931 131.868 74.1939 132.235 73.4148 133.275ZM-1.76017 73.3092C-3.05064 73.9405 -6.14786 77.0841 -8.64329 80.2954C-12.0823 84.7211 -13.0431 85.4758 -12.6135 83.4138C-12.1913 81.3918 -12.7538 81.8724 -14.8011 85.2833C-17.083 89.0818 -18.1621 89.8717 -21.0661 89.8698C-22.9955 89.8681 -24.5067 90.3872 -24.4243 91.0231C-24.341 91.6581 -25.1745 91.498 -26.2741 90.6662C-27.3747 89.8337 -27.8879 89.8291 -27.4149 90.6525C-26.9418 91.4777 -24.4049 92.3573 -21.7751 92.6075C-19.0895 92.8637 -16.4939 93.9026 -15.8524 94.9803C-14.8785 96.6135 -14.7228 96.51 -14.8034 94.2787C-14.9339 90.6516 -4.21132 75.2798 -2.98448 77.3366C-1.99207 79.0009 -1.26013 78.3008 -0.153993 74.6241C0.575819 72.1933 0.55555 72.1767 -1.76017 73.3092ZM38.9183 112.215C36.7008 113.108 34.8287 113.389 34.7574 112.839C34.6245 111.814 41.5233 109.423 42.4417 110.175C42.7208 110.404 41.1358 111.322 38.9183 112.215ZM51.5143 118.398C49.4374 119.184 42.7217 129.51 43.7453 130.348C44.8113 131.221 47.0871 128.491 50.4495 122.303C51.7669 119.879 52.247 118.123 51.5143 118.398ZM37.358 115.673C34.4108 116.704 32.2031 117.715 32.4529 117.919C33.1498 118.49 42.9048 115.245 42.805 114.475C42.7567 114.103 40.3053 114.642 37.358 115.673ZM44.5981 120.801C42.9548 121.702 40.0248 124.497 38.0865 127.013L34.5628 131.588L39.6186 126.97C42.3991 124.43 45.6172 121.869 46.7695 121.281C47.9208 120.692 48.5772 119.974 48.2252 119.686C47.8742 119.399 46.2424 119.9 44.5981 120.801ZM78.716 146.24C80.6337 148.437 81.4127 149.689 80.4455 149.022C78.7854 147.876 73.0851 147.999 74.492 149.15C74.8561 149.448 77.2844 150.376 79.8881 151.213C86.0877 153.204 86.1817 150.702 80.0845 145.994L75.2291 142.245L78.716 146.24ZM-9.34211 76.601C-10.3859 77.1683 -11.6218 78.1579 -12.0892 78.799C-12.5548 79.44 -11.6587 79.2947 -10.0979 78.4756C-8.53634 77.6555 -7.30131 76.6669 -7.3519 76.2768C-7.4025 75.8867 -8.29852 76.032 -9.34211 76.601ZM-0.178726 88.1308C-3.30111 90.6346 -7.90764 98.9751 -8.68989 103.546C-9.20197 106.54 -9.79053 106.31 -11.7395 102.352C-13.0784 99.6331 -13.0997 99.6427 -12.3755 102.627C-11.9625 104.326 -11.1848 106.162 -10.6468 106.706C-10.1079 107.251 -11.3017 106.905 -13.2983 105.94L-16.928 104.183L-14.0498 106.858L-11.1709 109.531L-16.6939 108.024C-19.7314 107.195 -21.6267 107.017 -20.9062 107.631C-20.1858 108.243 -18.2746 109.039 -16.6595 109.397C-14.4189 109.896 -14.123 110.176 -15.4111 110.582C-18.0014 111.396 -25.6717 108.562 -29.3104 105.446L-32.5699 102.655L-27.4441 104.648C-22.94 106.399 -22.7684 106.377 -26.0277 104.465C-31.1395 101.465 -29.8721 100.767 -22.9513 102.771C-19.7596 103.694 -17.7666 103.928 -18.5238 103.289C-19.2811 102.65 -23.5422 101.421 -27.9906 100.559C-34.8262 99.2331 -35.8698 99.3501 -34.7203 101.305C-30.9039 107.805 -20.9196 112.581 -12.0496 112.152C-7.94039 111.953 -6.63616 111.177 -3.38078 106.994C-0.215458 102.925 -0.0738601 102.47 -2.56882 104.374C-5.53341 106.638 -5.5436 106.58 -3.15108 101.202C-0.000797701 94.1246 0.713012 93.4177 0.200206 97.8843C-0.302363 102.276 0.246844 101.052 2.44099 92.9041C3.35123 89.5224 3.81272 86.5217 3.46635 86.235C3.11998 85.9482 1.48046 86.8015 -0.178726 88.1308ZM55.9674 136.373C54.2616 138.48 53.8586 139.395 55.0711 138.407C56.2837 137.419 57.6794 135.696 58.1726 134.577C58.6658 133.459 57.6731 134.267 55.9674 136.373ZM19.8719 108.018C19.7078 111.555 19.4433 112.186 18.9611 110.189C18.2755 107.349 18.756 101.93 19.6309 102.646C19.8908 102.859 19.9989 105.275 19.8719 108.018ZM-35.2104 62.0314C-34.4341 63.0682 -32.8401 64.3731 -31.6704 64.9294C-30.5016 65.4867 -31.1368 64.6387 -33.0838 63.0448C-35.0308 61.4509 -35.9875 60.9956 -35.2104 62.0314ZM0.023237 93.5917C-0.874486 94.0796 -2.62436 96.766 -3.86635 99.5625C-8.17453 109.255 -8.31332 109.468 -7.75476 105.501C-6.91985 99.5863 -2.76322 91.7914 -0.613103 92.1075C1.84581 92.4694 1.89111 92.575 0.023237 93.5917ZM30.1079 124.444C28.479 124.711 27.1664 126.147 25.6835 129.281C23.6128 133.656 23.6218 133.684 26.1482 130.802C27.5626 129.188 29.3839 128.133 30.1954 128.458C31.2187 128.869 31.7854 128.289 32.0472 126.557C32.3704 124.421 32.0915 124.118 30.1079 124.444ZM54.124 147.931C55.1957 149.189 57.0233 150.671 58.1853 151.224C59.3474 151.777 58.4707 150.748 56.237 148.937C54.0032 147.125 53.0523 146.673 54.124 147.931ZM-25.5354 84.7765C-28.134 83.7 -28.3448 83.7758 -26.7318 85.2062C-25.6551 86.1608 -23.7515 87.0855 -22.5012 87.2605C-19.8457 87.6321 -21.0756 86.6252 -25.5354 84.7765ZM48.2478 146.315C46.9284 145.656 45.1277 145.149 44.2467 145.187C43.3657 145.225 44.8014 146.257 47.4387 147.478C54.5449 150.772 55.2231 149.797 48.2478 146.315ZM-33.9093 80.561C-34.9584 80.1401 -36.6725 79.4483 -37.7192 79.0245C-40.8626 77.7488 -37.264 84.6402 -33.114 87.8434L-29.4905 90.6395L-32.9774 86.6449L-36.4643 82.6503L-32.183 85.6745L-27.9016 88.6985L-31.0873 85.3678C-33.7719 82.5619 -33.8545 82.1757 -31.6141 82.916C-28.7042 83.8764 -30.6689 81.8605 -33.9093 80.561ZM22.1488 130.182C20.6466 132.017 20.2408 132.938 21.2454 132.229C22.251 131.52 23.4809 130.018 23.9768 128.892C24.4737 127.767 23.6511 128.347 22.1488 130.182ZM52.8019 152.807C52.4535 153.934 51.2451 154.236 49.6852 153.584C48.283 152.999 47.1796 152.863 47.2347 153.28C47.288 153.698 49.8703 154.788 52.9731 155.703C58.8885 157.447 60.0001 156.393 55.8381 152.985C54.0985 151.561 53.2022 151.509 52.8019 152.807ZM2.42242 115.625C1.99749 117.904 1.42235 119.583 1.14421 119.355C0.866067 119.127 0.986057 117.076 1.41098 114.797C1.83591 112.518 2.41105 110.839 2.6892 111.067C2.96734 111.295 2.84735 113.346 2.42242 115.625ZM5.52376 120.223C5.13458 121.474 5.26689 122.466 5.81877 122.427C6.36988 122.39 6.68913 121.366 6.52721 120.152C6.29272 118.4 6.08765 118.416 5.52376 120.223ZM42.894 151.437C43.3977 152.309 44.2986 152.99 44.8935 152.948C45.4884 152.906 45.0758 152.193 43.9762 151.361C42.7605 150.442 42.3358 150.472 42.894 151.437ZM61.074 175.024C54.0536 176.665 53.9323 176.747 53.7813 179.96C53.6976 181.734 53.9414 181.614 54.8454 179.438C55.574 177.688 56.2187 177.152 56.5444 178.025C56.8346 178.8 58.0528 178.74 59.2539 177.894C60.455 177.047 61.6645 176.963 61.9429 177.708C62.2202 178.453 63.6972 177.942 65.225 176.576C66.7525 175.207 67.8558 173.969 67.6777 173.823C67.4997 173.677 64.5278 174.218 61.074 175.024ZM79.5428 186.499C77.0787 186.105 73.3202 186.053 71.1908 186.384C68.2425 186.843 68.7403 187.021 73.2788 187.127C76.5559 187.203 80.5224 187.465 82.0936 187.709C83.6637 187.951 84.7407 187.94 84.486 187.683C84.232 187.426 82.0077 186.893 79.5428 186.499ZM70.5094 191.572C64.5478 192.169 59.4674 192.108 59.2169 191.438C58.9661 190.766 58.3241 190.752 57.7896 191.405C57.2558 192.057 54.8946 192.853 52.5413 193.173L48.2646 193.754L52.6139 193.732C55.0063 193.721 57.5031 194.152 58.1626 194.692C58.823 195.233 59.7024 195.259 60.1183 194.751C60.5335 194.244 61.3219 194.578 61.8697 195.498C62.4173 196.416 63.5344 196.958 64.3509 196.702C65.2542 196.417 65.0396 195.953 63.8023 195.517C60.1133 194.216 62.9242 193.236 72.4087 192.513C77.5535 192.122 81.6683 191.505 81.5536 191.144C81.4399 190.783 76.4692 190.976 70.5094 191.572ZM43.2953 173.366C38.3923 176.039 38.3774 176.064 42.0052 175.485C44.549 175.079 45.538 175.4 45.2262 176.53C44.9782 177.427 45.8482 176.711 47.1586 174.937C50.3728 170.59 49.2351 170.126 43.2953 173.366ZM63.7 188.217C62.1838 188.802 60.9867 189.617 61.0408 190.027C61.094 190.437 62.536 190.124 64.2455 189.33C67.9992 187.588 67.575 186.721 63.7 188.217ZM71.3391 196.324L67.6564 196.892L71.4188 196.939C74.9539 196.983 76.1798 196.705 75.3707 196.042C75.1785 195.885 73.3644 196.013 71.3391 196.324ZM-75.0413 84.4505C-77.0257 89.427 -77.7783 98.848 -76.4905 102.588C-75.7896 104.625 -73.6411 107.842 -71.7157 109.737C-69.791 111.633 -67.2754 115.283 -66.1252 117.85L-64.0345 122.518L-71.5616 117.268L-79.0896 112.02L-71.7341 118.511C-66.2428 123.357 -65.2885 124.545 -67.9724 123.202L-71.5663 121.401L-68.8684 124.296L-66.1697 127.19L-71.0533 125.308C-73.9546 124.191 -76.8103 122.233 -78.0888 120.489L-80.2399 117.552L-77.1205 118.9C-74.051 120.227 -74.0474 120.206 -76.8654 117.557C-78.4406 116.076 -80.1117 114.636 -80.5809 114.357C-81.0494 114.077 -81.0804 113.42 -80.6512 112.895C-80.222 112.371 -80.5807 111.361 -81.4475 110.651C-83.8699 108.668 -83.6063 111.761 -80.8481 117.671C-78.016 123.741 -73.9515 126.584 -66.2914 127.854C-62.6993 128.45 -60.9067 127.975 -59.3149 126.008C-57.893 124.25 -57.7926 123.546 -59.0178 123.914C-60.5291 124.369 -60.8689 124.091 -60.9021 122.371C-60.9514 119.802 -58.8589 108.974 -58.1448 108.102C-57.0351 106.746 -56.5333 112.804 -57.3651 117.516C-57.8479 120.248 -57.887 122.058 -57.4538 121.537C-55.8035 119.56 -55.5899 103.161 -57.195 101.847C-58.617 100.683 -63.4621 108.906 -63.9236 113.266C-64.7456 121.016 -66.2741 117.629 -66.9273 106.612C-67.2552 101.086 -68.1338 95.2878 -68.8796 93.7268C-69.6256 92.1639 -69.5296 94.4795 -68.6663 98.8705C-67.8038 103.262 -67.5077 106.883 -68.0077 106.918C-69.4089 107.016 -72.6875 90.6381 -71.3498 90.2174C-70.1562 89.8428 -71.5397 83.7348 -73.1094 82.4497C-73.5797 82.0647 -74.4491 82.9657 -75.0413 84.4505ZM47.8125 185.423C46.545 187.013 46.3392 187.726 47.3555 187.009C48.3717 186.292 49.4081 184.991 49.6593 184.118C49.9105 183.246 49.0799 183.834 47.8125 185.423ZM-72.257 89.357C-72.9528 89.5755 -72.7315 94.0554 -71.7659 99.3119C-70.6175 105.567 -70.6191 108.371 -71.7701 107.429C-74.6931 105.036 -75.8737 101.063 -75.6671 94.3191C-75.518 89.4879 -74.9984 87.9804 -73.5549 88.194C-71.0506 88.5644 -70.71 88.8705 -72.257 89.357ZM36.9667 179.861C36.1061 181.011 36.1609 181.433 37.1055 180.938C37.9613 180.489 38.5984 179.636 38.5217 179.045C38.445 178.453 37.7458 178.82 36.9667 179.861ZM29.6407 174.035C25.8167 177.807 24.3348 179.736 24.9032 180.202C25.9328 181.045 31.2988 175.862 30.7946 174.512C30.5522 173.863 30.0325 173.647 29.6407 174.035ZM47.312 189.922C46.4514 191.072 46.5062 191.495 47.4508 190.999C48.3065 190.55 48.9436 189.697 48.8669 189.106C48.7902 188.515 48.0911 188.882 47.312 189.922ZM30.993 181.207C29.7255 182.796 29.5197 183.51 30.5359 182.793C31.5522 182.075 32.5886 180.774 32.8398 179.902C33.091 179.03 32.2604 179.617 30.993 181.207ZM36.0501 185.347C34.7827 186.936 34.5768 187.65 35.5931 186.933C36.6093 186.215 37.6457 184.914 37.8969 184.042C38.1481 183.17 37.3175 183.757 36.0501 185.347ZM-60.9585 114.289C-61.7174 118.266 -62.5392 121.354 -62.785 121.153C-63.7731 120.344 -62.7283 112.145 -61.2234 108.901C-59.2476 104.639 -59.2204 105.19 -60.9585 114.289ZM3.30612 161.775C1.29636 162.346 -0.40153 162.393 -0.468287 161.878C-0.579415 161.022 5.7274 159.727 6.5861 160.43C6.79041 160.597 5.31486 161.203 3.30612 161.775ZM41.3306 190.045C40.7419 190.086 39.3351 191.249 38.2043 192.63C37.0743 194.011 35.077 195.291 33.7654 195.473C32.4548 195.657 33.3406 195.802 35.7358 195.798C38.131 195.794 40.1566 196.294 40.2365 196.91C40.3874 198.073 45.5231 198.135 46.4643 196.985C46.76 196.624 45.9065 195.807 44.5692 195.171C43.2308 194.534 42.6427 193.853 43.2629 193.659C44.6188 193.232 42.8573 189.939 41.3306 190.045ZM53.7266 200.109C54.2303 200.981 55.1312 201.662 55.7261 201.62C56.321 201.579 55.9084 200.865 54.8088 200.033C53.593 199.114 53.1684 199.144 53.7266 200.109ZM58.5529 204.7C60.9863 208.909 58.7022 208.389 52.6634 203.358L47.382 198.959L51.3504 203.383C53.963 206.295 56.6981 208.243 59.3529 209.084L63.3869 210.361L61.3802 207.004C60.2773 205.157 58.8126 203.231 58.1266 202.724C57.4399 202.217 57.6321 203.107 58.5529 204.7ZM-49.9397 120.922C-50.8656 122.133 -51.9357 124.303 -52.3157 125.743L-53.0077 128.361L-51.3043 126.571L-49.6009 124.781L-50.2929 127.399C-51.2626 131.068 -52.0098 131.929 -52.6783 130.142C-52.9929 129.298 -53.6149 130.559 -54.0587 132.944C-54.5032 135.33 -55.4807 137.475 -56.2305 137.71C-56.981 137.946 -57.1127 138.534 -56.524 139.016C-55.9354 139.498 -55.7169 140.213 -56.0402 140.606C-56.3636 140.999 -60.853 139.186 -66.0165 136.582C-77.2503 130.913 -79.9712 130.246 -78.8787 133.428C-78.4664 134.627 -77.2004 136.331 -76.0637 137.212C-74.045 138.78 -74.0292 138.763 -75.3723 136.479C-76.6449 134.313 -76.5263 134.245 -73.7615 135.543C-72.1202 136.314 -69.6283 137.863 -68.2251 138.986C-66.1661 140.635 -65.8125 140.602 -66.3943 138.813C-66.9106 137.224 -66.1494 137.691 -63.7012 140.466C-61.2517 143.243 -60.24 143.864 -60.1124 142.666C-60.0152 141.749 -59.4812 141.371 -58.9249 141.827C-56.2386 144.026 -58.7782 145.335 -63.5964 144.236C-66.5581 143.559 -68.5175 143.417 -67.9504 143.921C-67.3825 144.424 -63.6427 145.322 -59.6404 145.916C-54.2084 146.721 -52.4285 146.483 -52.6244 144.972C-52.7688 143.859 -51.8477 141.613 -50.5774 139.983C-48.5945 137.435 -48.6135 137.184 -50.7108 138.202C-53.0864 139.354 -53.1241 139.314 -52.0848 136.697C-51.4984 135.217 -51.5017 133.929 -52.0927 133.834C-52.6844 133.74 -52.1357 132.401 -50.8738 130.859C-48.9095 128.46 -48.4928 128.411 -47.9818 130.511C-47.653 131.861 -47.2454 130.048 -47.0767 126.483C-46.7319 119.174 -47.4839 117.711 -49.9397 120.922ZM3.8208 165.527C1.73887 166.12 0.773817 166.723 1.67659 166.866C3.4002 167.142 8.76348 165.397 8.03121 164.797C7.79757 164.606 5.90372 164.934 3.8208 165.527ZM-14.1188 163.687C-14.8969 164.638 -16.5304 158.658 -17.0759 152.855C-17.6809 146.42 -17.673 146.433 -15.7547 154.852C-14.6928 159.513 -13.9557 163.488 -14.1188 163.687ZM-11.6996 156.605C-11.7988 159.151 -11.6528 161.42 -11.3747 161.648C-11.0965 161.876 -10.7874 159.979 -10.6882 157.433C-10.5889 154.888 -10.7349 152.619 -11.013 152.391C-11.2912 152.163 -11.6003 154.06 -11.6996 156.605ZM24.9715 189.749C21.983 194.268 20.8421 195.11 17.2192 195.477C11.257 196.083 10.4975 194.862 14.6039 191.274C17.6458 188.617 17.7199 188.401 15.1422 189.702C13.4969 190.532 11.7594 192.101 11.2802 193.188C10.6975 194.509 10.0812 194.615 9.42146 193.509C8.87842 192.597 8.94584 191.095 9.57243 190.169C10.199 189.243 9.04185 189.961 7.00096 191.763C4.14425 194.286 2.0785 194.893 -1.97508 194.399C-6.0205 193.905 -7.2002 193.32 -7.06537 191.878C-6.94006 190.551 -7.37588 190.536 -8.54558 191.827C-9.45561 192.833 -9.99251 192.932 -9.73576 192.047C-9.01747 189.562 -10.947 188.702 -12.6304 190.758C-13.7807 192.163 -15.7159 191.894 -20.8275 189.62C-24.5077 187.983 -27.767 186.44 -28.0694 186.193C-28.3719 185.945 -26.9433 183.354 -24.8938 180.434L-21.1678 175.125L-25.3436 179.844C-29.3924 184.42 -29.5965 184.484 -32.0339 181.96C-34.4869 179.42 -34.5007 179.425 -32.6207 182.161C-31.0012 184.52 -31.2153 185.797 -33.9657 190.186L-37.2368 195.406L-33.5567 191.234L-29.8759 187.062L-21.9647 190.617C-17.5401 192.606 -13.2374 195.307 -12.2002 196.745C-10.7658 198.736 -10.5047 198.811 -11.0445 197.075C-11.6122 195.249 -11.2672 195.211 -9.18943 196.872C-7.10561 198.538 -6.76341 198.5 -7.32658 196.66C-7.77082 195.208 -7.49208 194.576 -6.54373 194.883C-5.73415 195.144 -2.75273 195.541 0.0822394 195.763C2.91823 195.986 5.65758 196.872 6.17041 197.732C6.69249 198.606 8.10944 198.665 9.38613 197.864C10.9161 196.905 12.5807 197.144 14.4359 198.588C16.637 200.301 16.9427 200.295 15.9273 198.557C14.7085 196.472 14.8036 196.368 18.0054 196.304C19.8502 196.266 22.3438 196.931 23.5462 197.781C24.7483 198.63 25.7878 198.803 25.856 198.164C25.9224 197.526 27.1436 197.957 28.5667 199.122C29.9898 200.287 31.5443 200.766 32.0196 200.185C32.5682 199.515 31.7019 198.551 29.6559 197.553C26.6786 196.101 26.649 195.935 29.2648 195.416C31.5979 194.953 31.3913 194.838 28.1125 194.77C24.5075 194.696 24.3218 194.574 26.1941 193.515C27.4321 192.814 27.6724 192.248 26.7898 192.106C25.9773 191.976 25.9407 191.088 26.7091 190.133C27.4766 189.177 28.1895 187.508 28.291 186.422C28.3998 185.274 27.0123 186.663 24.9715 189.749ZM17.0256 179.457C16.165 180.608 16.2198 181.03 17.1644 180.534C18.0201 180.085 18.6572 179.233 18.5805 178.641C18.5038 178.05 17.8047 178.417 17.0256 179.457ZM30.1741 190.222C29.3135 191.372 29.3683 191.794 30.3129 191.298C31.1687 190.849 31.8057 189.997 31.729 189.406C31.6523 188.814 30.9532 189.181 30.1741 190.222ZM49.8245 204.875C50.3282 205.748 51.2292 206.428 51.8241 206.387C52.4189 206.345 52.0064 205.631 50.9068 204.8C49.691 203.881 49.2663 203.911 49.8245 204.875ZM9.41645 175.032C8.05616 175.48 6.37251 177.172 5.6757 178.791L4.4084 181.734L7.23325 179.793C8.78727 178.727 10.4709 177.035 10.975 176.036C11.7815 174.434 11.597 174.314 9.41645 175.032ZM-41.3753 141.272C-46.3187 147.315 -47.3628 158.113 -42.6875 154.841C-41.6225 154.095 -41.7791 153.989 -43.3584 154.387C-46.6642 155.219 -45.0495 149.635 -40.8468 145.703C-38.3678 143.382 -37.4437 141.634 -37.8175 139.972C-38.2758 137.93 -38.7996 138.122 -41.3753 141.272ZM12.1122 183.396C11.2515 184.546 11.3063 184.968 12.251 184.473C13.1067 184.024 13.7437 183.171 13.667 182.58C13.5903 181.988 12.8912 182.355 12.1122 183.396ZM36.5101 201.922C41.9324 207.539 42.9931 209.347 41.3819 210.224C40.2157 210.858 40.583 211.529 42.7589 212.741C44.3918 213.649 46.022 214.033 46.3809 213.595C47.3205 212.447 41.7046 205.079 37.4208 201.841C33.9732 199.237 33.9222 199.241 36.5101 201.922ZM34.6847 203.636C35.4611 204.673 37.0551 205.978 38.2247 206.534C39.3936 207.091 38.7584 206.243 36.8114 204.649C34.8644 203.055 33.9076 202.6 34.6847 203.636ZM-34.1213 156.162C-35.1434 158.172 -36.192 162.313 -36.4535 165.364C-37.053 172.396 -37.4111 172.765 -40.1473 169.185C-43.3987 164.929 -43.5924 162.578 -40.9783 159.111L-38.6576 156.03L-41.7705 158.258C-43.483 159.484 -44.558 159.978 -44.1586 159.356C-43.7592 158.734 -44.8328 157.078 -46.5452 155.676C-48.8765 153.767 -49.4301 153.668 -48.7515 155.276C-47.3563 158.582 -48.8402 159.276 -52.8378 157.184C-54.8357 156.14 -56.4166 155.702 -56.3505 156.211C-56.2834 156.722 -54.4801 157.814 -52.3417 158.64C-50.204 159.466 -48.508 160.645 -48.5728 161.26C-48.6384 161.877 -51.4225 161.064 -54.7599 159.456C-58.0974 157.848 -60.7779 156.927 -60.7145 157.409C-60.6519 157.892 -58.5266 159.125 -55.9896 160.151C-49.9826 162.582 -49.7631 164.512 -55.7011 162.69C-58.2254 161.915 -59.5779 161.893 -58.705 162.643C-57.8313 163.391 -54.2761 164.253 -50.8052 164.555C-44.9303 165.067 -44.2612 165.417 -41.1611 169.594C-37.3683 174.706 -37.5825 176.031 -41.8674 173.942C-45.8165 172.016 -55.0827 170.393 -55.9669 171.473C-56.3532 171.945 -54.9378 173.699 -52.8226 175.37C-49.9462 177.64 -49.3221 177.817 -50.3509 176.067C-51.5526 174.023 -51.1842 173.936 -47.4298 175.386C-41.8327 177.548 -41.2695 178.147 -45.0758 177.894C-46.7858 177.779 -47.7993 178.001 -47.3289 178.387C-45.6652 179.749 -35.7104 179.745 -34.5944 178.381C-33.3949 176.916 -33.9539 169.205 -35.2977 168.665C-35.7353 168.49 -35.229 167.292 -34.1739 166.003C-31.6719 162.947 -31.3828 163.342 -31.8881 169.135C-32.1194 171.792 -31.9379 172.941 -31.4845 171.69C-30.4225 168.76 -30.4012 154.189 -31.4577 153.236C-31.9012 152.835 -33.0991 154.152 -34.1213 156.162ZM28.2768 203.209C29.6273 204.68 32.1316 206.73 33.8396 207.763C35.5476 208.797 34.4424 207.595 31.3829 205.09C28.3233 202.585 26.9262 201.739 28.2768 203.209ZM-42.0992 148.342C-42.718 149.098 -43.0077 150.294 -42.7434 151.001C-42.4808 151.708 -41.7994 151.232 -41.2314 149.944C-40.0271 147.213 -40.4837 146.369 -42.0992 148.342ZM-39.1594 152.106C-39.5485 153.357 -39.4163 154.349 -38.8644 154.31C-38.3133 154.273 -37.994 153.249 -38.1559 152.035C-38.3904 150.283 -38.5955 150.299 -39.1594 152.106ZM-31.4667 161.26C-31.5602 162.135 -32.4618 162.836 -33.4717 162.815C-34.4813 162.796 -34.8542 162.674 -34.2988 162.544C-33.7451 162.415 -33.3269 161.318 -33.37 160.108C-33.4248 158.604 -33.1085 158.185 -32.3732 158.787C-31.7826 159.27 -31.3742 160.383 -31.4667 161.26ZM21.4451 204.549C22.4979 206.373 22.4626 207.738 21.3453 208.346C20.0034 209.075 20.4121 209.96 23.1075 212.167C25.0373 213.747 26.7847 214.834 26.9907 214.582C27.5838 213.857 22.6517 203.822 21.1538 202.707C20.4084 202.153 20.5403 202.982 21.4451 204.549ZM-7.06313 184.284C-8.13618 185.594 -8.34594 186.319 -7.52886 185.892C-6.71154 185.468 -5.83359 184.395 -5.57784 183.509C-5.32187 182.625 -5.99006 182.973 -7.06313 184.284ZM12.0051 199.356C12.484 200.19 13.6219 201.122 14.5336 201.426C15.4457 201.731 15.0534 201.049 13.6627 199.91C12.272 198.772 11.5264 198.523 12.0051 199.356ZM17.0622 203.496C17.5411 204.33 18.679 205.262 19.5908 205.566C20.5028 205.871 20.1105 205.189 18.7198 204.05C17.3291 202.912 16.5835 202.663 17.0622 203.496ZM-51.8614 149.399C-51.7084 150.613 -51.1318 151.574 -50.5809 151.535C-50.0291 151.496 -50.1541 150.504 -50.858 149.329C-51.8763 147.632 -52.0815 147.646 -51.8614 149.399ZM-4.33271 189.039C-5.19333 190.19 -5.13857 190.612 -4.19394 190.116C-3.33819 189.667 -2.70107 188.815 -2.77777 188.223C-2.85446 187.632 -3.55365 187.999 -4.33271 189.039ZM10.641 203.085C11.7074 204.337 13.7545 206.013 15.1924 206.811C16.631 207.609 15.7586 206.584 13.2554 204.535C10.7521 202.485 9.57533 201.833 10.641 203.085ZM2.32644 205.504L3.73979 208.936L1.37632 207.058C0.0688967 206.018 -1.05529 205.834 -1.14172 206.645C-1.32362 208.365 4.36652 213.329 5.26399 212.233C5.95074 211.394 3.1668 203.772 1.79688 202.738C1.31095 202.372 1.54914 203.616 2.32644 205.504ZM-64.3932 152.877C-71.2074 151.166 -71.716 152.8 -65.9423 157.864C-61.5866 161.685 -61.3342 161.777 -63.7291 158.667C-67.5735 153.673 -67.2984 152.957 -62.1412 154.529C-59.6385 155.292 -58.0174 155.509 -58.5393 155.012C-59.0613 154.515 -61.6955 153.554 -64.3932 152.877ZM-4.9018 201.436C-4.4229 202.271 -3.28504 203.203 -2.37324 203.506C-1.46122 203.812 -1.85348 203.129 -3.24419 201.991C-4.63489 200.852 -5.38048 200.603 -4.9018 201.436ZM-8.00084 202.127C-7.22451 203.163 -5.6305 204.468 -4.46083 205.025C-3.29197 205.582 -3.92722 204.734 -5.8742 203.14C-7.8212 201.546 -8.77794 201.091 -8.00084 202.127ZM-39.0326 178.588C-39.6339 178.63 -41.5733 177.59 -43.3428 176.276C-45.2035 174.895 -45.7808 174.013 -44.7126 174.184C-42.5274 174.533 -37.4415 178.477 -39.0326 178.588ZM-43.2027 199.453C-51.7924 209.488 -55.6102 212.325 -58.1292 210.545C-59.7684 209.386 -59.8368 209.026 -58.3755 209.259C-56.879 209.498 -56.9823 207.984 -58.7694 203.51C-62.165 195.013 -69.9542 180.298 -71.356 179.737C-73.2796 178.964 -72.0529 198.181 -69.8652 203.088C-68.7487 205.591 -65.8825 209.267 -63.4943 211.259L-59.1527 214.88L-67.0369 223.153C-71.373 227.702 -75.7567 231.996 -76.7775 232.692C-77.7973 233.389 -78.1968 234.317 -77.6637 234.753C-77.1307 235.19 -72.4906 231.082 -67.3522 225.622L-58.0105 215.699L-52.792 216.963C-44.6211 218.944 -22.6666 216.106 -23.0538 213.121C-23.1339 212.503 -27.4572 210.947 -32.6601 209.664C-39.5804 207.956 -43.2133 207.813 -46.1927 209.133C-48.4326 210.126 -50.5231 210.744 -50.8369 210.506C-51.1514 210.269 -49.0016 207.509 -46.0599 204.372C-43.118 201.236 -40.2606 197.665 -39.7086 196.436C-39.1583 195.206 -40.7304 196.566 -43.2027 199.453ZM-38.9371 211.599C-43.6154 211.67 -46.9926 212.097 -46.4413 212.549C-45.8911 212.999 -41.4144 213.354 -36.495 213.337C-31.5748 213.319 -27.5037 213.656 -27.449 214.084C-27.3936 214.512 -31.6709 215.415 -36.9531 216.092C-49.5089 217.699 -60.7608 215.348 -51.5594 213.041C-49.5632 212.54 -47.4132 211.517 -46.7808 210.768C-45.7013 209.486 -32.4721 209.572 -31.0752 210.87C-30.7207 211.199 -34.2581 211.527 -38.9371 211.599ZM-66.4024 192.307C-64.7757 192.567 -58.6799 204.618 -58.9397 207.063C-59.2207 209.72 -60.788 207.282 -63.3294 200.234C-64.6961 196.444 -66.187 193.368 -66.6439 193.4C-67.4198 193.454 -64.9539 200.151 -60.7771 209.332L-58.9672 213.312L-62.8581 210.191C-67.7115 206.297 -69.1313 203.281 -70.5292 193.904C-71.7504 185.707 -71.0418 182.96 -69.1347 188.498C-68.4589 190.461 -67.2296 192.174 -66.4024 192.307Z" fill="#1ABC00" fill-opacity="0.43"/>
</svg>
